<?xml version="1.0" encoding="UTF-8" standalone="no"?>
<!-- Created with Inkscape (http://www.inkscape.org/) -->

<svg
   xmlns:ns1="http://www.iki.fi/pav/software/textext/"
   xmlns:dc="http://purl.org/dc/elements/1.1/"
   xmlns:cc="http://creativecommons.org/ns#"
   xmlns:rdf="http://www.w3.org/1999/02/22-rdf-syntax-ns#"
   xmlns:svg="http://www.w3.org/2000/svg"
   xmlns="http://www.w3.org/2000/svg"
   xmlns:sodipodi="http://sodipodi.sourceforge.net/DTD/sodipodi-0.dtd"
   xmlns:inkscape="http://www.inkscape.org/namespaces/inkscape"
   sodipodi:docname="website_schematic.svg"
   inkscape:version="0.92.4 (5da689c313, 2019-01-14)"
   id="svg8"
   version="1.1"
   viewBox="0 0 110 70"
   height="70mm"
   width="110mm">
  <defs
     id="defs2">
    <inkscape:path-effect
       effect="spiro"
       id="path-effect22073"
       is_visible="true" />
    <inkscape:path-effect
       effect="spiro"
       id="path-effect22065"
       is_visible="true" />
    <inkscape:path-effect
       effect="spiro"
       id="path-effect22057"
       is_visible="true" />
    <inkscape:path-effect
       effect="spiro"
       id="path-effect4250"
       is_visible="true" />
    <inkscape:path-effect
       effect="spiro"
       id="path-effect4246"
       is_visible="true" />
    <inkscape:path-effect
       effect="spiro"
       id="path-effect4242"
       is_visible="true" />
    <inkscape:path-effect
       effect="spiro"
       id="path-effect4238"
       is_visible="true" />
    <inkscape:path-effect
       effect="spiro"
       id="path-effect4196"
       is_visible="true" />
    <inkscape:path-effect
       effect="spiro"
       id="path-effect4192"
       is_visible="true" />
    <inkscape:path-effect
       effect="spiro"
       id="path-effect4188"
       is_visible="true" />
    <inkscape:path-effect
       effect="spiro"
       id="path-effect4184"
       is_visible="true" />
    <inkscape:path-effect
       effect="spiro"
       id="path-effect4180"
       is_visible="true" />
    <inkscape:path-effect
       effect="spiro"
       id="path-effect4176"
       is_visible="true" />
    <inkscape:path-effect
       effect="spiro"
       id="path-effect4172"
       is_visible="true" />
    <inkscape:path-effect
       effect="spiro"
       id="path-effect4168"
       is_visible="true" />
    <inkscape:path-effect
       effect="spiro"
       id="path-effect4164"
       is_visible="true" />
    <inkscape:path-effect
       effect="spiro"
       id="path-effect4160"
       is_visible="true" />
    <inkscape:path-effect
       effect="spiro"
       id="path-effect4156"
       is_visible="true" />
    <inkscape:path-effect
       effect="spiro"
       id="path-effect4152"
       is_visible="true" />
    <inkscape:path-effect
       effect="spiro"
       id="path-effect4148"
       is_visible="true" />
    <inkscape:path-effect
       effect="spiro"
       id="path-effect4086"
       is_visible="true" />
    <inkscape:path-effect
       effect="spiro"
       id="path-effect4082"
       is_visible="true" />
    <inkscape:path-effect
       effect="spiro"
       id="path-effect4078"
       is_visible="true" />
    <inkscape:path-effect
       effect="spiro"
       id="path-effect4074"
       is_visible="true" />
    <inkscape:path-effect
       effect="spiro"
       id="path-effect4070"
       is_visible="true" />
    <inkscape:path-effect
       effect="spiro"
       id="path-effect4066"
       is_visible="true" />
    <inkscape:path-effect
       effect="spiro"
       id="path-effect4062"
       is_visible="true" />
    <inkscape:path-effect
       effect="spiro"
       id="path-effect4058"
       is_visible="true" />
    <inkscape:path-effect
       effect="spiro"
       id="path-effect4021"
       is_visible="true" />
    <inkscape:path-effect
       effect="spiro"
       id="path-effect4017"
       is_visible="true" />
    <inkscape:path-effect
       effect="spiro"
       id="path-effect4013"
       is_visible="true" />
    <inkscape:path-effect
       effect="spiro"
       id="path-effect4009"
       is_visible="true" />
    <inkscape:path-effect
       effect="spiro"
       id="path-effect4005"
       is_visible="true" />
    <inkscape:path-effect
       effect="spiro"
       id="path-effect4001"
       is_visible="true" />
    <inkscape:path-effect
       effect="spiro"
       id="path-effect3997"
       is_visible="true" />
    <clipPath
       id="pcb81efc805">
      <rect
         id="rect38047"
         y="34.560001"
         x="54"
         width="334.79999"
         height="217.44" />
    </clipPath>
    <clipPath
       id="clipPath5913">
      <rect
         id="rect5911"
         y="34.560001"
         x="54"
         width="334.79999"
         height="217.44" />
    </clipPath>
    <clipPath
       id="clipPath5917">
      <rect
         id="rect5915"
         y="34.560001"
         x="54"
         width="334.79999"
         height="217.44" />
    </clipPath>
    <clipPath
       id="clipPath5921">
      <rect
         id="rect5919"
         y="34.560001"
         x="54"
         width="334.79999"
         height="217.44" />
    </clipPath>
    <clipPath
       id="clipPath5925">
      <rect
         id="rect5923"
         y="34.560001"
         x="54"
         width="334.79999"
         height="217.44" />
    </clipPath>
    <clipPath
       id="clipPath5929">
      <rect
         id="rect5927"
         y="34.560001"
         x="54"
         width="334.79999"
         height="217.44" />
    </clipPath>
    <path
       style="stroke:#000000;stroke-width:4;stroke-linecap:butt;stroke-linejoin:round"
       id="path38087"
       d="M 0,0 H -8"
       inkscape:connector-curvature="0" />
    <path
       style="stroke:#000000;stroke-width:4;stroke-linecap:butt;stroke-linejoin:round"
       id="path38342"
       d="M 0,0 V -8"
       inkscape:connector-curvature="0" />
    <path
       style="stroke:#000000;stroke-width:4;stroke-linecap:butt;stroke-linejoin:round"
       id="path38493"
       d="M 0,0 H 8"
       inkscape:connector-curvature="0" />
    <symbol
       id="Xor_Gate">
      <title
         id="title14806">Xor Gate</title>
      <path
         style="stroke-width:0.26458332"
         inkscape:connector-curvature="0"
         d="M 6.5236328,18.520833 H 11.90625 c 5.291667,0 7.9375,-5.291666 7.9375,-5.291666 0,0 -1.322917,-5.291667 -7.9375,-5.291667 H 6.5236328 c 0.4735846,0.8186706 0.8337984,1.7074809 1.0748698,2.645833 0.2173208,0.845905 0.3389974,1.731915 0.3389974,2.645834 0,0.913918 -0.1216766,1.799928 -0.3389974,2.645833 -0.2410714,0.938352 -0.6012852,1.827163 -1.0748698,2.645833 z"
         id="path14808" />
      <path
         style="stroke-width:0.26458332"
         inkscape:connector-curvature="0"
         d="m 4.9361328,18.520833 c 1.0512687,-1.50219 1.6784505,-3.319012 1.6784505,-5.291666 0,-1.972655 -0.6271818,-3.7894769 -1.6784505,-5.291667"
         id="path14810" />
    </symbol>
  </defs>
  <sodipodi:namedview
     id="base"
     pagecolor="#ffffff"
     bordercolor="#666666"
     borderopacity="1.0"
     inkscape:pageopacity="0.0"
     inkscape:pageshadow="2"
     inkscape:zoom="1"
     inkscape:cx="134.91777"
     inkscape:cy="268.25881"
     inkscape:document-units="mm"
     inkscape:current-layer="layer1"
     showgrid="false"
     inkscape:window-width="1920"
     inkscape:window-height="1017"
     inkscape:window-x="-8"
     inkscape:window-y="-8"
     inkscape:window-maximized="1" />
  <metadata
     id="metadata5">
    <rdf:RDF>
      <cc:Work
         rdf:about="">
        <dc:format>image/svg+xml</dc:format>
        <dc:type
           rdf:resource="http://purl.org/dc/dcmitype/StillImage" />
        <dc:title></dc:title>
      </cc:Work>
    </rdf:RDF>
  </metadata>
  <g
     inkscape:label="Layer 1"
     inkscape:groupmode="layer"
     id="layer1"
     transform="translate(0,-227)">
    <g
       id="g3336"
       transform="translate(-36.559778,215.80266)">
      <path
         inkscape:connector-curvature="0"
         id="path1587"
         d="m 55.225652,22.662158 h 5.386502"
         style="fill:none;stroke:#000000;stroke-width:0.60000002;stroke-linecap:butt;stroke-linejoin:miter;stroke-miterlimit:4;stroke-dasharray:none;stroke-opacity:1" />
      <circle
         r="2.6309724"
         cy="22.662163"
         cx="53.81303"
         id="path815"
         style="opacity:1;fill:#1f77b4;fill-opacity:1;stroke:none;stroke-width:0.2590498;stroke-linejoin:round;stroke-miterlimit:4;stroke-dasharray:0.25904979, 0.25904979;stroke-dashoffset:0;stroke-opacity:1" />
      <path
         inkscape:connector-curvature="0"
         id="path1587-1"
         d="m 55.22565,40.234214 h 5.386504"
         style="fill:none;stroke:#000000;stroke-width:0.60000002;stroke-linecap:butt;stroke-linejoin:miter;stroke-miterlimit:4;stroke-dasharray:none;stroke-opacity:1" />
      <circle
         r="2.6309724"
         cy="40.234219"
         cx="53.81303"
         id="path815-2"
         style="opacity:1;fill:#ff7f0e;fill-opacity:1;stroke:none;stroke-width:0.2590498;stroke-linejoin:round;stroke-miterlimit:4;stroke-dasharray:0.2590498, 0.2590498;stroke-dashoffset:0;stroke-opacity:1" />
      <path
         inkscape:connector-curvature="0"
         id="path1587-0"
         d="m 55.225648,57.806271 h 5.386506"
         style="fill:none;stroke:#000000;stroke-width:0.60000002;stroke-linecap:butt;stroke-linejoin:miter;stroke-miterlimit:4;stroke-dasharray:none;stroke-opacity:1" />
      <circle
         r="2.6309724"
         cy="57.806271"
         cx="53.81303"
         id="path815-26"
         style="opacity:1;fill:#2ca02c;fill-opacity:1;stroke:none;stroke-width:0.2590498;stroke-linejoin:round;stroke-miterlimit:4;stroke-dasharray:0.2590498, 0.2590498;stroke-dashoffset:0;stroke-opacity:1" />
      <path
         inkscape:connector-curvature="0"
         id="path1587-14"
         d="M 55.225652,75.378326 H 60.61216"
         style="fill:none;stroke:#000000;stroke-width:0.60000002;stroke-linecap:butt;stroke-linejoin:miter;stroke-miterlimit:4;stroke-dasharray:none;stroke-opacity:1" />
      <circle
         r="2.6309724"
         cy="75.378326"
         cx="53.81303"
         id="path815-6"
         style="opacity:1;fill:#d62728;fill-opacity:1;stroke:none;stroke-width:0.2590498;stroke-linejoin:round;stroke-miterlimit:4;stroke-dasharray:0.2590498, 0.2590498;stroke-dashoffset:0;stroke-opacity:1" />
      <path
         transform="matrix(0.25904979,0,0,0.25904979,237.66855,-2.8639735)"
         inkscape:original-d="m -683.48401,98.537571 c 3.24437,-4.967864 10.35555,-4.487746 14.5084,-7.602379 11.04638,-8.284789 19.76903,-5.173141 29.93419,1.603619 3.45752,2.305013 6.50203,8.372929 9.88896,11.759859 2.28568,2.28569 13.4076,8.15789 13.67496,9.0049"
         inkscape:path-effect="#path-effect4148"
         inkscape:connector-curvature="0"
         id="path4146"
         d="m -683.48401,98.537571 c 4.52363,-3.078688 9.40237,-5.635142 14.5084,-7.602379 4.88811,-1.883278 10.05155,-3.235464 15.28985,-3.211103 5.23829,0.02436 10.57716,1.513449 14.64434,4.814722 3.98567,3.235112 6.47991,7.921909 9.88896,11.759859 3.6664,4.12767 8.43458,7.2675 13.67496,9.0049"
         style="fill:none;stroke:#000000;stroke-width:1;stroke-linecap:butt;stroke-linejoin:miter;stroke-miterlimit:4;stroke-dasharray:none;stroke-opacity:1" />
      <path
         transform="matrix(0.25904979,0,0,0.25904979,237.66855,-2.8639735)"
         inkscape:original-d="m -683.48404,234.20304 c 8.51704,3.8733 13.07073,-2.76704 19.31927,-5.89131 5.0443,-2.52215 7.074,-9.19484 8.81991,-14.43256 1.7145,-5.1435 3.39704,-9.92384 5.07812,-14.96709 5.09119,-15.27359 -9.97426,-53.7269 -2.67272,-64.67923 11.80576,-17.70863 28.49761,-11.71792 37.46196,-20.92928"
         inkscape:path-effect="#path-effect4160"
         inkscape:connector-curvature="0"
         id="path4158"
         d="m -683.48404,234.20304 c 6.88182,1.18296 14.26855,-1.06959 19.31927,-5.89131 4.10693,-3.92072 6.56676,-9.22082 8.81991,-14.43256 2.09516,-4.84629 4.10675,-9.77742 5.07812,-14.96709 2.00587,-10.71659 -0.53677,-21.68817 -2.63974,-32.38613 -2.10298,-10.69796 -3.73081,-22.03664 -0.033,-32.2931 2.64561,-7.33797 8.01056,-13.66021 14.82022,-17.46464 6.80965,-3.80442 15.00602,-5.05863 22.64174,-3.46464"
         style="fill:none;stroke:#000000;stroke-width:1;stroke-linecap:butt;stroke-linejoin:miter;stroke-miterlimit:4;stroke-dasharray:none;stroke-opacity:1" />
      <path
         transform="matrix(0.25904979,0,0,0.25904979,237.66855,-2.8639735)"
         sodipodi:nodetypes="cssc"
         inkscape:original-d="m -683.48401,166.3703 c 19.54051,4.36551 41.49005,14.01765 54.59883,30.40362 20.97312,26.21643 -0.49391,7.37664 41.05258,7.37664 9.41072,0 40.64548,5.05712 48.61767,2.24507"
         inkscape:path-effect="#path-effect4164"
         inkscape:connector-curvature="0"
         id="path4162"
         d="m -683.48401,166.3703 c 15.69441,13.94968 34.47524,24.40787 54.59883,30.40362 13.34502,3.9761 27.19624,5.99799 41.05258,7.37664 16.15102,1.60696 32.38729,2.35672 48.61767,2.24507"
         style="fill:none;stroke:#000000;stroke-width:1;stroke-linecap:butt;stroke-linejoin:miter;stroke-miterlimit:4;stroke-dasharray:none;stroke-opacity:1" />
      <path
         transform="matrix(0.25904979,0,0,0.25904979,237.66855,-2.8639735)"
         sodipodi:nodetypes="cssc"
         inkscape:original-d="m -683.48404,234.20304 c 28.35166,-4.56033 50.61196,-22.90378 80.524,-17.91844 19.02966,3.17161 17.16321,-1.91982 29.39963,10.3166 3.59074,3.59074 31.53407,-22.75908 34.34548,-20.20557"
         inkscape:path-effect="#path-effect4172"
         inkscape:connector-curvature="0"
         id="path4170"
         d="m -683.48404,234.20304 c 10.2053,-10.3454 23.43638,-17.66982 37.6213,-20.82629 14.18493,-3.15647 29.27343,-2.13381 42.9027,2.90785 9.77951,3.61758 19.02227,9.29875 29.39963,10.3166 7.06731,0.69319 14.34159,-0.91059 20.46219,-4.51137 6.12061,-3.60077 11.05609,-9.18004 13.88329,-15.6942"
         style="fill:none;stroke:#000000;stroke-width:1;stroke-linecap:butt;stroke-linejoin:miter;stroke-miterlimit:4;stroke-dasharray:none;stroke-opacity:1" />
      <path
         transform="matrix(0.25904979,0,0,0.25904979,237.66855,-2.8639735)"
         sodipodi:nodetypes="csccc"
         inkscape:original-d="m -683.48396,302.03576 c 16.22848,5.27638 31.04136,-7.27596 45.24433,-13.58839 8.34157,-3.70737 18.22006,-4.22092 26.99422,-6.41448 7.5678,-1.89193 14.35288,-7.19635 21.9161,-9.08714 12.94331,-3.23583 40.61097,-56.19221 50.11438,-66.55012"
         inkscape:path-effect="#path-effect4176"
         inkscape:connector-curvature="0"
         id="path4174"
         d="m -683.48396,302.03576 c 14.75041,-5.54738 29.8783,-10.0908 45.24433,-13.58839 9.02027,-2.05318 18.1353,-3.74982 26.99422,-6.41448 7.58721,-2.28215 14.97099,-5.2741 21.9161,-9.08714 25.08451,-13.77202 43.80868,-38.63705 50.11438,-66.55012"
         style="fill:none;stroke:#000000;stroke-width:1;stroke-linecap:butt;stroke-linejoin:miter;stroke-miterlimit:4;stroke-dasharray:none;stroke-opacity:1" />
      <path
         transform="matrix(0.25904979,0,0,0.25904979,237.66855,-2.8639735)"
         inkscape:original-d="m -683.48396,302.03576 c 6.86295,1.19933 12.17726,-3.49824 16.91378,-7.70845 13.45938,-11.96393 19.32675,-30.26762 23.51971,-47.03945 3.62651,-14.50609 -8.99017,-32.70388 3.74176,-45.43581 12.75874,-12.75874 27.20944,-14.14802 42.63084,-20.31249"
         inkscape:path-effect="#path-effect4180"
         inkscape:connector-curvature="0"
         id="path4178"
         d="m -683.48396,302.03576 c 6.06479,-1.44571 11.84397,-4.07957 16.91378,-7.70845 7.37117,-5.27616 13.17323,-12.61279 17.07338,-20.79576 3.90014,-8.18296 5.93518,-17.19323 6.44633,-26.24369 0.43174,-7.64436 -0.20355,-15.30696 -0.1554,-22.96335 0.0482,-7.65639 0.82005,-15.46147 3.89716,-22.47246 3.44751,-7.85491 9.7916,-14.39923 17.53564,-18.08906 7.74404,-3.68983 16.82305,-4.49423 25.0952,-2.22343"
         style="fill:none;stroke:#000000;stroke-width:1;stroke-linecap:butt;stroke-linejoin:miter;stroke-miterlimit:4;stroke-dasharray:none;stroke-opacity:1" />
      <path
         transform="matrix(0.25904979,0,0,0.25904979,237.66855,-2.8639735)"
         inkscape:original-d="m -683.48401,98.537571 c 28.03392,4.339189 22.76644,33.529809 40.7008,51.464189 12.69142,12.69142 44.82404,11.24205 46.10534,31.5378"
         inkscape:path-effect="#path-effect4188"
         inkscape:connector-curvature="0"
         id="path4186"
         d="m -683.48401,98.537571 c 10.6491,19.214719 24.45697,36.674099 40.7008,51.464189 13.81219,12.57607 29.37787,23.22359 46.10534,31.5378"
         style="fill:none;stroke:#000000;stroke-width:1;stroke-linecap:butt;stroke-linejoin:miter;stroke-miterlimit:4;stroke-dasharray:none;stroke-opacity:1" />
      <path
         transform="matrix(0.25904979,0,0,0.25904979,237.66855,-2.8639735)"
         sodipodi:nodetypes="csssc"
         inkscape:original-d="m -683.48401,166.3703 c 9.41562,-7.57795 27.0959,-8.39417 39.36447,-11.02315 12.73556,-2.72905 24.70848,-7.43436 36.88318,-11.49259 7.24585,-2.41528 13.07194,-43.30392 20.52629,-44.901277 17.09179,-3.66253 40.25258,-19.409938 54.06999,-23.092088"
         inkscape:path-effect="#path-effect4192"
         inkscape:connector-curvature="0"
         id="path4190"
         d="m -683.48401,166.3703 c 12.60043,-5.27752 25.8557,-8.98937 39.36447,-11.02315 6.46849,-0.97385 13.00926,-1.56758 19.371,-3.09006 6.36174,-1.52249 12.62924,-4.04976 17.51218,-8.40253 6.20896,-5.53481 9.65007,-13.50504 12.19671,-21.42336 2.54664,-7.91833 4.4224,-16.13495 8.32958,-23.477917 4.97575,-9.351196 13.22121,-16.921201 22.9626,-21.081531 9.74139,-4.160329 20.9115,-4.882284 31.10739,-2.010557"
         style="fill:none;stroke:#000000;stroke-width:1;stroke-linecap:butt;stroke-linejoin:miter;stroke-miterlimit:4;stroke-dasharray:none;stroke-opacity:1" />
      <path
         transform="matrix(0.25904979,0,0,0.25904979,237.66855,-2.8639735)"
         sodipodi:nodetypes="csc"
         inkscape:original-d="m -615.4775,113.30357 c 10.68343,3.20507 41.49132,2.8356 50.14901,5.00002 13.67242,3.4181 19.74352,-40.717585 32.68841,-42.442395"
         inkscape:path-effect="#path-effect4196"
         inkscape:connector-curvature="0"
         id="path4194"
         d="m -615.4775,113.30357 c 14.53997,9.72191 33.97574,11.65972 50.14901,5.00002 8.64613,-3.56024 16.32821,-9.43126 22.03371,-16.83924 5.7055,-7.407974 9.42028,-16.334549 10.6547,-25.603155"
         style="fill:none;stroke:#000000;stroke-width:1;stroke-linecap:butt;stroke-linejoin:miter;stroke-miterlimit:4;stroke-dasharray:none;stroke-opacity:1" />
      <circle
         cx="133.09137"
         cy="23.629944"
         r="2.6309724"
         id="path815-9"
         style="opacity:1;fill:#000000;fill-opacity:1;stroke:none;stroke-width:0.2590498;stroke-linejoin:round;stroke-miterlimit:4;stroke-dasharray:0.25904979, 0.25904979;stroke-dashoffset:0;stroke-opacity:1" />
      <path
         transform="matrix(0.25904979,0,0,0.25904979,237.66855,-2.8639735)"
         sodipodi:nodetypes="csc"
         inkscape:original-d="m -532.64008,75.861195 c 38.079,-4.91852 198.85664,-463.396345 57.75558,27.421845 -3.7711,13.11774 62.06242,7.96935 71.76321,-1.99191"
         inkscape:path-effect="#path-effect4238"
         inkscape:connector-curvature="0"
         id="path4236"
         d="m -532.64008,75.861195 c 16.90983,13.257162 36.79417,22.698072 57.75558,27.421845 23.58862,5.31583 48.50578,4.62421 71.76321,-1.99191"
         style="fill:none;stroke:#000000;stroke-width:1;stroke-linecap:butt;stroke-linejoin:miter;stroke-miterlimit:4;stroke-dasharray:none;stroke-opacity:1" />
      <path
         transform="matrix(0.25904979,0,0,0.25904979,237.66855,-2.8639735)"
         sodipodi:nodetypes="ccc"
         inkscape:original-d="m -596.67787,181.53956 c 18.23455,3.37866 37.35658,-24.98333 50.0048,-37.63155 3.14856,-3.14857 12.11733,-67.281075 14.03299,-68.046815"
         inkscape:path-effect="#path-effect4242"
         inkscape:connector-curvature="0"
         id="path4240"
         d="m -596.67787,181.53956 c 20.29826,-6.36169 38.27204,-19.88802 50.0048,-37.63155 13.08811,-19.79323 18.22255,-44.690487 14.03299,-68.046815"
         style="fill:none;stroke:#000000;stroke-width:1;stroke-linecap:butt;stroke-linejoin:miter;stroke-miterlimit:4;stroke-dasharray:none;stroke-opacity:1" />
      <path
         transform="matrix(0.25904979,0,0,0.25904979,237.66855,-2.8639735)"
         sodipodi:nodetypes="ccssc"
         inkscape:original-d="m -539.21493,206.39563 c 3.67615,-5.90568 21.29679,-9.36373 26.59197,-15.98273 7.28644,-9.10804 14.45222,-7.65046 26.94079,-11.81331 21.63749,-7.2125 -6.52559,1.14311 16.30342,-1.71051 9.69077,-1.21135 61.37092,-72.10276 66.25746,-75.59795"
         inkscape:path-effect="#path-effect4246"
         inkscape:connector-curvature="0"
         id="path4244"
         d="m -539.21493,206.39563 c 8.80431,-5.42605 17.66903,-10.75407 26.59197,-15.98273 8.50348,-4.98287 17.26216,-9.9526 26.94079,-11.81331 5.36851,-1.03209 10.87367,-1.07493 16.30342,-1.71051 18.23705,-2.13473 35.57032,-11.24331 47.67279,-25.0519 12.10247,-13.80859 18.85964,-32.18655 18.58467,-50.54605"
         style="fill:none;stroke:#000000;stroke-width:1;stroke-linecap:butt;stroke-linejoin:miter;stroke-miterlimit:4;stroke-dasharray:none;stroke-opacity:1" />
      <path
         transform="matrix(0.25904979,0,0,0.25904979,237.66855,-2.8639735)"
         sodipodi:nodetypes="ccssc"
         inkscape:original-d="m -683.48396,302.03576 c 17.4081,-2.26211 37.22767,-9.66938 52.72788,-20.00287 10.9038,-7.26919 21.73127,-16.38586 31.00327,-25.65786 17.77095,-17.77097 19.15655,-50.7595 49.1776,-58.26476 37.95022,-9.48756 117.37264,-79.77312 147.45392,-96.81914"
         inkscape:path-effect="#path-effect4250"
         inkscape:connector-curvature="0"
         id="path4248"
         d="m -683.48396,302.03576 c 18.6888,-3.00177 36.75053,-9.85367 52.72788,-20.00287 11.34859,-7.2089 21.61437,-16.03459 31.00327,-25.65786 17.75388,-18.19706 32.37259,-39.18795 49.1776,-58.26476 39.33525,-44.65283 90.84471,-78.47425 147.45392,-96.81914"
         style="fill:none;stroke:#000000;stroke-width:1;stroke-linecap:butt;stroke-linejoin:miter;stroke-miterlimit:4;stroke-dasharray:none;stroke-opacity:1" />
      <circle
         r="2.6309724"
         cy="26.487282"
         cx="78.263489"
         id="path815-9-3"
         style="opacity:1;fill:#5a5865;fill-opacity:1;stroke:none;stroke-width:0.2590498;stroke-linejoin:round;stroke-miterlimit:4;stroke-dasharray:0.2590498, 0.2590498;stroke-dashoffset:0;stroke-opacity:1" />
      <circle
         r="2.6309724"
         cy="44.163815"
         cx="83.133522"
         id="path815-9-7"
         style="opacity:1;fill:#5a5865;fill-opacity:1;stroke:none;stroke-width:0.2590498;stroke-linejoin:round;stroke-miterlimit:4;stroke-dasharray:0.2590498, 0.2590498;stroke-dashoffset:0;stroke-opacity:1" />
      <circle
         r="2.6309724"
         cy="16.884777"
         cx="99.237862"
         id="path815-9-9"
         style="opacity:1;fill:#5a5865;fill-opacity:1;stroke:none;stroke-width:0.2590498;stroke-linejoin:round;stroke-miterlimit:4;stroke-dasharray:0.2590498, 0.2590498;stroke-dashoffset:0;stroke-opacity:1" />
      <circle
         r="2.6309724"
         cy="50.464977"
         cx="97.862724"
         id="path815-9-4"
         style="opacity:1;fill:#5a5865;fill-opacity:1;stroke:none;stroke-width:0.2590498;stroke-linejoin:round;stroke-miterlimit:4;stroke-dasharray:0.2590498, 0.2590498;stroke-dashoffset:0;stroke-opacity:1" />
      <g
         transform="matrix(0.66515516,0,0,0.66515516,38.406142,-63.744008)"
         ns1:version="0.11.0"
         ns1:texconverter="pdflatex"
         ns1:pdfconverter="pdf2svg"
         ns1:text="$Y$"
         ns1:preamble="C:\\Users\\vr_co\\AppData\\Roaming\\inkscape\\extensions\\textext\\default_packages.tex"
         ns1:scale="4.85228717578"
         ns1:alignment="middle center"
         inkscapeversion="0.92.4"
         ns1:jacobian_sqrt="1.711782"
         id="g12526">
        <g
           id="g12524">
          <g
             style="fill:#000000;fill-opacity:1"
             id="g12522">
            <path
               inkscape:connector-curvature="0"
               style="stroke:none;stroke-width:0"
               d="M 5.953125,-5.671875 6.09375,-5.8125 C 6.390625,-6.109375 6.71875,-6.453125 7.390625,-6.5 7.5,-6.515625 7.59375,-6.515625 7.59375,-6.6875 c 0,-0.078125 -0.046875,-0.125 -0.125,-0.125 -0.265625,0 -0.546875,0.03125 -0.8125,0.03125 -0.34375,0 -0.6875,-0.03125 -1,-0.03125 -0.0625,0 -0.1875,0 -0.1875,0.1875 0,0.109375 0.09375,0.125 0.140625,0.125 0.078125,0 0.359375,0.015625 0.359375,0.234375 0,0.171875 -0.234375,0.421875 -0.265625,0.46875 L 3.390625,-3.125 2.296875,-6.09375 C 2.234375,-6.234375 2.234375,-6.25 2.234375,-6.265625 2.234375,-6.5 2.71875,-6.5 2.828125,-6.5 c 0.125,0 0.234375,0 0.234375,-0.203125 0,-0.109375 -0.125,-0.109375 -0.15625,-0.109375 -0.28125,0 -0.96875,0.03125 -1.25,0.03125 -0.25,0 -0.875,-0.03125 -1.125,-0.03125 -0.046875,0 -0.1875,0 -0.1875,0.203125 C 0.34375,-6.5 0.453125,-6.5 0.578125,-6.5 c 0.59375,0 0.640625,0.09375 0.734375,0.34375 L 2.53125,-2.875 c 0.015625,0.03125 0.046875,0.140625 0.046875,0.15625 0,0.03125 -0.40625,1.640625 -0.453125,1.828125 C 2,-0.34375 1.984375,-0.3125 1.1875,-0.3125 c -0.1875,0 -0.265625,0 -0.265625,0.203125 C 0.921875,0 1.03125,0 1.0625,0 c 0.265625,0 0.96875,-0.03125 1.25,-0.03125 0.28125,0 1,0.03125 1.28125,0.03125 0.0625,0 0.1875,0 0.1875,-0.203125 C 3.78125,-0.3125 3.6875,-0.3125 3.5,-0.3125 c -0.015625,0 -0.203125,0 -0.375,-0.015625 C 2.90625,-0.34375 2.84375,-0.375 2.84375,-0.484375 c 0,-0.078125 0.09375,-0.421875 0.140625,-0.625 l 0.359375,-1.40625 c 0.046875,-0.203125 0.0625,-0.21875 0.140625,-0.3125 z m 0,0"
               transform="translate(148.712,134.765)"
               id="path12520" />
          </g>
        </g>
      </g>
      <g
         transform="matrix(0.665155,0,0,0.665155,-58.347374,-65.208637)"
         ns1:version="0.11.0"
         ns1:texconverter="pdflatex"
         ns1:pdfconverter="pdf2svg"
         ns1:text="$X_1$"
         ns1:preamble="C:\\Users\\vr_co\\AppData\\Roaming\\inkscape\\extensions\\textext\\default_packages.tex"
         ns1:scale="1.88547601347"
         ns1:alignment="middle center"
         inkscapeversion="0.92.4"
         ns1:jacobian_sqrt="0.665155"
         id="g1830">
        <g
           id="g1828">
          <g
             style="fill:#000000;fill-opacity:1"
             id="g1822">
            <path
               inkscape:connector-curvature="0"
               style="stroke:none;stroke-width:0"
               d="M 4.828125,-4.09375 4,-6.078125 c -0.03125,-0.078125 -0.046875,-0.125 -0.046875,-0.125 0,-0.0625 0.15625,-0.25 0.578125,-0.296875 0.109375,-0.015625 0.203125,-0.015625 0.203125,-0.1875 0,-0.125 -0.125,-0.125 -0.15625,-0.125 -0.40625,0 -0.828125,0.03125 -1.25,0.03125 -0.25,0 -0.859375,-0.03125 -1.109375,-0.03125 -0.0625,0 -0.1875,0 -0.1875,0.203125 C 2.03125,-6.5 2.140625,-6.5 2.265625,-6.5 c 0.59375,0 0.65625,0.09375 0.75,0.3125 l 1.171875,2.78125 -2.109375,2.265625 -0.125,0.109375 C 1.46875,-0.5 1,-0.34375 0.484375,-0.3125 c -0.125,0.015625 -0.21875,0.015625 -0.21875,0.203125 0,0.015625 0,0.109375 0.140625,0.109375 0.296875,0 0.625,-0.03125 0.921875,-0.03125 C 1.703125,-0.03125 2.09375,0 2.453125,0 2.515625,0 2.625,0 2.625,-0.203125 2.625,-0.296875 2.53125,-0.3125 2.515625,-0.3125 c -0.09375,0 -0.40625,-0.03125 -0.40625,-0.3125 0,-0.15625 0.15625,-0.3125 0.265625,-0.4375 L 3.40625,-2.140625 4.296875,-3.125 l 1,2.390625 c 0.046875,0.109375 0.0625,0.109375 0.0625,0.140625 0,0.078125 -0.203125,0.25 -0.578125,0.28125 C 4.671875,-0.296875 4.578125,-0.296875 4.578125,-0.125 4.578125,0 4.6875,0 4.71875,0 5,0 5.703125,-0.03125 5.984375,-0.03125 6.234375,-0.03125 6.84375,0 7.09375,0 c 0.0625,0 0.1875,0 0.1875,-0.1875 0,-0.125 -0.109375,-0.125 -0.1875,-0.125 -0.65625,0 -0.6875,-0.03125 -0.859375,-0.4375 C 5.859375,-1.671875 5.1875,-3.234375 4.953125,-3.828125 5.625,-4.53125 6.671875,-5.71875 7,-5.984375 7.28125,-6.234375 7.671875,-6.46875 8.265625,-6.5 c 0.125,-0.015625 0.21875,-0.015625 0.21875,-0.203125 0,0 0,-0.109375 -0.125,-0.109375 -0.296875,0 -0.640625,0.03125 -0.9375,0.03125 -0.375,0 -0.75,-0.03125 -1.109375,-0.03125 -0.0625,0 -0.1875,0 -0.1875,0.203125 0,0.0625 0.046875,0.09375 0.109375,0.109375 0.09375,0.015625 0.40625,0.03125 0.40625,0.3125 0,0.140625 -0.109375,0.265625 -0.1875,0.359375 z m 0,0"
               transform="translate(148.712,134.765)"
               id="path1820" />
          </g>
          <g
             style="fill:#000000;fill-opacity:1"
             id="g1826">
            <path
               inkscape:connector-curvature="0"
               style="stroke:none;stroke-width:0"
               d="m 2.328125,-4.4375 c 0,-0.1875 0,-0.1875 -0.203125,-0.1875 -0.453125,0.4375 -1.078125,0.4375 -1.359375,0.4375 v 0.25 c 0.15625,0 0.625,0 1,-0.1875 v 3.546875 c 0,0.234375 0,0.328125 -0.6875,0.328125 H 0.8125 V 0 c 0.125,0 0.984375,-0.03125 1.234375,-0.03125 0.21875,0 1.09375,0.03125 1.25,0.03125 V -0.25 H 3.03125 c -0.703125,0 -0.703125,-0.09375 -0.703125,-0.328125 z m 0,0"
               transform="translate(156.966,136.259)"
               id="path1824" />
          </g>
        </g>
      </g>
      <g
         transform="matrix(0.665155,0,0,0.665155,-58.347374,-47.636582)"
         ns1:version="0.11.0"
         ns1:texconverter="pdflatex"
         ns1:pdfconverter="pdf2svg"
         ns1:text="$X_2$"
         ns1:preamble="C:\\Users\\vr_co\\AppData\\Roaming\\inkscape\\extensions\\textext\\default_packages.tex"
         ns1:scale="1.88547604182"
         ns1:alignment="middle center"
         inkscapeversion="0.92.4"
         ns1:jacobian_sqrt="0.665155"
         id="g2204">
        <g
           id="g2202">
          <g
             style="fill:#000000;fill-opacity:1"
             id="g2196">
            <path
               inkscape:connector-curvature="0"
               style="stroke:none;stroke-width:0"
               d="M 4.828125,-4.09375 4,-6.078125 c -0.03125,-0.078125 -0.046875,-0.125 -0.046875,-0.125 0,-0.0625 0.15625,-0.25 0.578125,-0.296875 0.109375,-0.015625 0.203125,-0.015625 0.203125,-0.1875 0,-0.125 -0.125,-0.125 -0.15625,-0.125 -0.40625,0 -0.828125,0.03125 -1.25,0.03125 -0.25,0 -0.859375,-0.03125 -1.109375,-0.03125 -0.0625,0 -0.1875,0 -0.1875,0.203125 C 2.03125,-6.5 2.140625,-6.5 2.265625,-6.5 c 0.59375,0 0.65625,0.09375 0.75,0.3125 l 1.171875,2.78125 -2.109375,2.265625 -0.125,0.109375 C 1.46875,-0.5 1,-0.34375 0.484375,-0.3125 c -0.125,0.015625 -0.21875,0.015625 -0.21875,0.203125 0,0.015625 0,0.109375 0.140625,0.109375 0.296875,0 0.625,-0.03125 0.921875,-0.03125 C 1.703125,-0.03125 2.09375,0 2.453125,0 2.515625,0 2.625,0 2.625,-0.203125 2.625,-0.296875 2.53125,-0.3125 2.515625,-0.3125 c -0.09375,0 -0.40625,-0.03125 -0.40625,-0.3125 0,-0.15625 0.15625,-0.3125 0.265625,-0.4375 L 3.40625,-2.140625 4.296875,-3.125 l 1,2.390625 c 0.046875,0.109375 0.0625,0.109375 0.0625,0.140625 0,0.078125 -0.203125,0.25 -0.578125,0.28125 C 4.671875,-0.296875 4.578125,-0.296875 4.578125,-0.125 4.578125,0 4.6875,0 4.71875,0 5,0 5.703125,-0.03125 5.984375,-0.03125 6.234375,-0.03125 6.84375,0 7.09375,0 c 0.0625,0 0.1875,0 0.1875,-0.1875 0,-0.125 -0.109375,-0.125 -0.1875,-0.125 -0.65625,0 -0.6875,-0.03125 -0.859375,-0.4375 C 5.859375,-1.671875 5.1875,-3.234375 4.953125,-3.828125 5.625,-4.53125 6.671875,-5.71875 7,-5.984375 7.28125,-6.234375 7.671875,-6.46875 8.265625,-6.5 c 0.125,-0.015625 0.21875,-0.015625 0.21875,-0.203125 0,0 0,-0.109375 -0.125,-0.109375 -0.296875,0 -0.640625,0.03125 -0.9375,0.03125 -0.375,0 -0.75,-0.03125 -1.109375,-0.03125 -0.0625,0 -0.1875,0 -0.1875,0.203125 0,0.0625 0.046875,0.09375 0.109375,0.109375 0.09375,0.015625 0.40625,0.03125 0.40625,0.3125 0,0.140625 -0.109375,0.265625 -0.1875,0.359375 z m 0,0"
               transform="translate(148.712,134.765)"
               id="path2194" />
          </g>
          <g
             style="fill:#000000;fill-opacity:1"
             id="g2200">
            <path
               inkscape:connector-curvature="0"
               style="stroke:none;stroke-width:0"
               d="M 3.515625,-1.265625 H 3.28125 c -0.015625,0.15625 -0.09375,0.5625 -0.1875,0.625 C 3.046875,-0.59375 2.515625,-0.59375 2.40625,-0.59375 H 1.125 c 0.734375,-0.640625 0.984375,-0.84375 1.390625,-1.171875 0.515625,-0.40625 1,-0.84375 1,-1.5 0,-0.84375 -0.734375,-1.359375 -1.625,-1.359375 -0.859375,0 -1.453125,0.609375 -1.453125,1.25 0,0.34375 0.296875,0.390625 0.375,0.390625 0.15625,0 0.359375,-0.125 0.359375,-0.375 0,-0.125 -0.046875,-0.375 -0.40625,-0.375 C 0.984375,-4.21875 1.453125,-4.375 1.78125,-4.375 c 0.703125,0 1.0625,0.546875 1.0625,1.109375 0,0.609375 -0.4375,1.078125 -0.65625,1.328125 L 0.515625,-0.265625 C 0.4375,-0.203125 0.4375,-0.1875 0.4375,0 h 2.875 z m 0,0"
               transform="translate(156.966,136.259)"
               id="path2198" />
          </g>
        </g>
      </g>
      <g
         transform="matrix(0.665155,0,0,0.665155,-58.347374,-30.111298)"
         ns1:version="0.11.0"
         ns1:texconverter="pdflatex"
         ns1:pdfconverter="pdf2svg"
         ns1:text="$X_3$"
         ns1:preamble="C:\\Users\\vr_co\\AppData\\Roaming\\inkscape\\extensions\\textext\\default_packages.tex"
         ns1:scale="1.88547604182"
         ns1:alignment="middle center"
         inkscapeversion="0.92.4"
         ns1:jacobian_sqrt="0.665155"
         id="g2516">
        <g
           id="g2514">
          <g
             style="fill:#000000;fill-opacity:1"
             id="g2508">
            <path
               inkscape:connector-curvature="0"
               style="stroke:none;stroke-width:0"
               d="M 4.828125,-4.09375 4,-6.078125 c -0.03125,-0.078125 -0.046875,-0.125 -0.046875,-0.125 0,-0.0625 0.15625,-0.25 0.578125,-0.296875 0.109375,-0.015625 0.203125,-0.015625 0.203125,-0.1875 0,-0.125 -0.125,-0.125 -0.15625,-0.125 -0.40625,0 -0.828125,0.03125 -1.25,0.03125 -0.25,0 -0.859375,-0.03125 -1.109375,-0.03125 -0.0625,0 -0.1875,0 -0.1875,0.203125 C 2.03125,-6.5 2.140625,-6.5 2.265625,-6.5 c 0.59375,0 0.65625,0.09375 0.75,0.3125 l 1.171875,2.78125 -2.109375,2.265625 -0.125,0.109375 C 1.46875,-0.5 1,-0.34375 0.484375,-0.3125 c -0.125,0.015625 -0.21875,0.015625 -0.21875,0.203125 0,0.015625 0,0.109375 0.140625,0.109375 0.296875,0 0.625,-0.03125 0.921875,-0.03125 C 1.703125,-0.03125 2.09375,0 2.453125,0 2.515625,0 2.625,0 2.625,-0.203125 2.625,-0.296875 2.53125,-0.3125 2.515625,-0.3125 c -0.09375,0 -0.40625,-0.03125 -0.40625,-0.3125 0,-0.15625 0.15625,-0.3125 0.265625,-0.4375 L 3.40625,-2.140625 4.296875,-3.125 l 1,2.390625 c 0.046875,0.109375 0.0625,0.109375 0.0625,0.140625 0,0.078125 -0.203125,0.25 -0.578125,0.28125 C 4.671875,-0.296875 4.578125,-0.296875 4.578125,-0.125 4.578125,0 4.6875,0 4.71875,0 5,0 5.703125,-0.03125 5.984375,-0.03125 6.234375,-0.03125 6.84375,0 7.09375,0 c 0.0625,0 0.1875,0 0.1875,-0.1875 0,-0.125 -0.109375,-0.125 -0.1875,-0.125 -0.65625,0 -0.6875,-0.03125 -0.859375,-0.4375 C 5.859375,-1.671875 5.1875,-3.234375 4.953125,-3.828125 5.625,-4.53125 6.671875,-5.71875 7,-5.984375 7.28125,-6.234375 7.671875,-6.46875 8.265625,-6.5 c 0.125,-0.015625 0.21875,-0.015625 0.21875,-0.203125 0,0 0,-0.109375 -0.125,-0.109375 -0.296875,0 -0.640625,0.03125 -0.9375,0.03125 -0.375,0 -0.75,-0.03125 -1.109375,-0.03125 -0.0625,0 -0.1875,0 -0.1875,0.203125 0,0.0625 0.046875,0.09375 0.109375,0.109375 0.09375,0.015625 0.40625,0.03125 0.40625,0.3125 0,0.140625 -0.109375,0.265625 -0.1875,0.359375 z m 0,0"
               transform="translate(148.712,134.765)"
               id="path2506" />
          </g>
          <g
             style="fill:#000000;fill-opacity:1"
             id="g2512">
            <path
               inkscape:connector-curvature="0"
               style="stroke:none;stroke-width:0"
               d="m 1.90625,-2.328125 c 0.546875,0 0.9375,0.375 0.9375,1.125 0,0.859375 -0.515625,1.125 -0.90625,1.125 -0.28125,0 -0.90625,-0.078125 -1.1875,-0.5 0.328125,0 0.40625,-0.234375 0.40625,-0.390625 0,-0.21875 -0.171875,-0.375 -0.390625,-0.375 -0.1875,0 -0.390625,0.125 -0.390625,0.40625 0,0.65625 0.71875,1.078125 1.5625,1.078125 0.96875,0 1.640625,-0.65625 1.640625,-1.34375 0,-0.546875 -0.4375,-1.09375 -1.203125,-1.25 0.71875,-0.265625 0.984375,-0.78125 0.984375,-1.21875 0,-0.546875 -0.625,-0.953125 -1.40625,-0.953125 -0.765625,0 -1.359375,0.375 -1.359375,0.9375 0,0.234375 0.15625,0.359375 0.359375,0.359375 0.21875,0 0.359375,-0.15625 0.359375,-0.34375 0,-0.203125 -0.140625,-0.359375 -0.359375,-0.375 0.25,-0.296875 0.71875,-0.375 0.984375,-0.375 0.3125,0 0.75,0.15625 0.75,0.75 0,0.296875 -0.09375,0.625 -0.28125,0.828125 -0.21875,0.265625 -0.421875,0.28125 -0.765625,0.3125 -0.171875,0.015625 -0.1875,0.015625 -0.21875,0.015625 -0.015625,0 -0.078125,0.015625 -0.078125,0.09375 0,0.09375 0.0625,0.09375 0.1875,0.09375 z m 0,0"
               transform="translate(156.966,136.259)"
               id="path2510" />
          </g>
        </g>
      </g>
      <g
         transform="matrix(0.665155,0,0,0.665155,-58.347374,-12.492474)"
         ns1:version="0.11.0"
         ns1:texconverter="pdflatex"
         ns1:pdfconverter="pdf2svg"
         ns1:text="$X_4$"
         ns1:preamble="C:\\Users\\vr_co\\AppData\\Roaming\\inkscape\\extensions\\textext\\default_packages.tex"
         ns1:scale="1.88547604182"
         ns1:alignment="middle center"
         inkscapeversion="0.92.4"
         ns1:jacobian_sqrt="0.665155"
         id="g2828">
        <g
           id="g2826">
          <g
             style="fill:#000000;fill-opacity:1"
             id="g2820">
            <path
               inkscape:connector-curvature="0"
               style="stroke:none;stroke-width:0"
               d="M 4.828125,-4.09375 4,-6.078125 c -0.03125,-0.078125 -0.046875,-0.125 -0.046875,-0.125 0,-0.0625 0.15625,-0.25 0.578125,-0.296875 0.109375,-0.015625 0.203125,-0.015625 0.203125,-0.1875 0,-0.125 -0.125,-0.125 -0.15625,-0.125 -0.40625,0 -0.828125,0.03125 -1.25,0.03125 -0.25,0 -0.859375,-0.03125 -1.109375,-0.03125 -0.0625,0 -0.1875,0 -0.1875,0.203125 C 2.03125,-6.5 2.140625,-6.5 2.265625,-6.5 c 0.59375,0 0.65625,0.09375 0.75,0.3125 l 1.171875,2.78125 -2.109375,2.265625 -0.125,0.109375 C 1.46875,-0.5 1,-0.34375 0.484375,-0.3125 c -0.125,0.015625 -0.21875,0.015625 -0.21875,0.203125 0,0.015625 0,0.109375 0.140625,0.109375 0.296875,0 0.625,-0.03125 0.921875,-0.03125 C 1.703125,-0.03125 2.09375,0 2.453125,0 2.515625,0 2.625,0 2.625,-0.203125 2.625,-0.296875 2.53125,-0.3125 2.515625,-0.3125 c -0.09375,0 -0.40625,-0.03125 -0.40625,-0.3125 0,-0.15625 0.15625,-0.3125 0.265625,-0.4375 L 3.40625,-2.140625 4.296875,-3.125 l 1,2.390625 c 0.046875,0.109375 0.0625,0.109375 0.0625,0.140625 0,0.078125 -0.203125,0.25 -0.578125,0.28125 C 4.671875,-0.296875 4.578125,-0.296875 4.578125,-0.125 4.578125,0 4.6875,0 4.71875,0 5,0 5.703125,-0.03125 5.984375,-0.03125 6.234375,-0.03125 6.84375,0 7.09375,0 c 0.0625,0 0.1875,0 0.1875,-0.1875 0,-0.125 -0.109375,-0.125 -0.1875,-0.125 -0.65625,0 -0.6875,-0.03125 -0.859375,-0.4375 C 5.859375,-1.671875 5.1875,-3.234375 4.953125,-3.828125 5.625,-4.53125 6.671875,-5.71875 7,-5.984375 7.28125,-6.234375 7.671875,-6.46875 8.265625,-6.5 c 0.125,-0.015625 0.21875,-0.015625 0.21875,-0.203125 0,0 0,-0.109375 -0.125,-0.109375 -0.296875,0 -0.640625,0.03125 -0.9375,0.03125 -0.375,0 -0.75,-0.03125 -1.109375,-0.03125 -0.0625,0 -0.1875,0 -0.1875,0.203125 0,0.0625 0.046875,0.09375 0.109375,0.109375 0.09375,0.015625 0.40625,0.03125 0.40625,0.3125 0,0.140625 -0.109375,0.265625 -0.1875,0.359375 z m 0,0"
               transform="translate(148.712,134.765)"
               id="path2818" />
          </g>
          <g
             style="fill:#000000;fill-opacity:1"
             id="g2824">
            <path
               inkscape:connector-curvature="0"
               style="stroke:none;stroke-width:0"
               d="m 3.6875,-1.140625 v -0.25 H 2.90625 V -4.5 c 0,-0.140625 0,-0.203125 -0.140625,-0.203125 -0.09375,0 -0.125,0 -0.1875,0.109375 l -2.3125,3.203125 v 0.25 h 2.0625 v 0.5625 c 0,0.25 0,0.328125 -0.578125,0.328125 H 1.5625 V 0 C 1.921875,-0.015625 2.359375,-0.03125 2.609375,-0.03125 2.875,-0.03125 3.3125,-0.015625 3.671875,0 v -0.25 h -0.1875 C 2.90625,-0.25 2.90625,-0.328125 2.90625,-0.578125 v -0.5625 z M 2.375,-3.9375 v 2.546875 H 0.53125 Z m 0,0"
               transform="translate(156.966,136.259)"
               id="path2822" />
          </g>
        </g>
      </g>
      <g
         transform="matrix(0.52765075,0,0,0.52765075,20.512794,-12.476874)"
         ns1:version="0.11.0"
         ns1:texconverter="pdflatex"
         ns1:pdfconverter="pdf2svg"
         ns1:text="Interaction"
         ns1:preamble="C:\\Users\\vr_co\\AppData\\Roaming\\inkscape\\extensions\\textext\\default_packages.tex"
         ns1:scale="1.88547607017"
         ns1:alignment="middle center"
         inkscapeversion="0.92.4"
         ns1:jacobian_sqrt="0.665155"
         id="g3014">
        <g
           id="surface1">
          <g
             style="fill:#000000;fill-opacity:1"
             id="g2991">
            <path
               inkscape:connector-curvature="0"
               style="stroke:none;stroke-width:0"
               d="M 2.25,-6.03125 C 2.25,-6.390625 2.265625,-6.5 3.0625,-6.5 h 0.25 v -0.3125 c -0.34375,0.03125 -1.125,0.03125 -1.515625,0.03125 -0.375,0 -1.171875,0 -1.515625,-0.03125 V -6.5 h 0.25 c 0.796875,0 0.828125,0.109375 0.828125,0.46875 v 5.25 c 0,0.359375 -0.03125,0.46875 -0.828125,0.46875 h -0.25 V 0 c 0.34375,-0.03125 1.140625,-0.03125 1.515625,-0.03125 0.390625,0 1.171875,0 1.515625,0.03125 v -0.3125 h -0.25 C 2.265625,-0.3125 2.25,-0.421875 2.25,-0.78125 Z m 0,0"
               transform="translate(148.712,134.765)"
               id="path2987" />
            <path
               inkscape:connector-curvature="0"
               style="stroke:none;stroke-width:0"
               d="M 1.09375,-3.421875 V -0.75 c 0,0.4375 -0.109375,0.4375 -0.78125,0.4375 V 0 c 0.359375,-0.015625 0.859375,-0.03125 1.140625,-0.03125 0.25,0 0.765625,0.015625 1.109375,0.03125 v -0.3125 c -0.671875,0 -0.78125,0 -0.78125,-0.4375 V -2.59375 C 1.78125,-3.625 2.5,-4.1875 3.125,-4.1875 c 0.640625,0 0.75,0.53125 0.75,1.109375 V -0.75 c 0,0.4375 -0.109375,0.4375 -0.78125,0.4375 V 0 c 0.34375,-0.015625 0.859375,-0.03125 1.125,-0.03125 0.25,0 0.78125,0.015625 1.109375,0.03125 v -0.3125 c -0.515625,0 -0.765625,0 -0.765625,-0.296875 v -1.90625 c 0,-0.859375 0,-1.15625 -0.3125,-1.515625 -0.140625,-0.171875 -0.46875,-0.375 -1.046875,-0.375 C 2.46875,-4.40625 2,-3.984375 1.71875,-3.359375 V -4.40625 L 0.3125,-4.296875 v 0.3125 c 0.703125,0 0.78125,0.0625 0.78125,0.5625 z m 0,0"
               transform="translate(152.30949,134.765)"
               id="path2989" />
          </g>
          <g
             style="fill:#000000;fill-opacity:1"
             id="g3011">
            <path
               inkscape:connector-curvature="0"
               style="stroke:none;stroke-width:0"
               d="m 1.71875,-3.984375 h 1.4375 v -0.3125 H 1.71875 V -6.125 h -0.25 c 0,0.8125 -0.296875,1.875 -1.28125,1.921875 v 0.21875 h 0.84375 v 2.75 c 0,1.21875 0.9375,1.34375 1.296875,1.34375 0.703125,0 0.984375,-0.703125 0.984375,-1.34375 v -0.5625 h -0.25 V -1.25 c 0,0.734375 -0.296875,1.109375 -0.671875,1.109375 -0.671875,0 -0.671875,-0.90625 -0.671875,-1.078125 z m 0,0"
               transform="translate(157.56576,134.765)"
               id="path2993" />
            <path
               inkscape:connector-curvature="0"
               style="stroke:none;stroke-width:0"
               d="M 1.109375,-2.515625 C 1.171875,-4 2.015625,-4.25 2.359375,-4.25 c 1.015625,0 1.125,1.34375 1.125,1.734375 z m 0,0.21875 h 2.78125 c 0.21875,0 0.25,0 0.25,-0.21875 0,-0.984375 -0.546875,-1.953125 -1.78125,-1.953125 -1.15625,0 -2.078125,1.03125 -2.078125,2.28125 0,1.328125 1.046875,2.296875 2.1875,2.296875 C 3.6875,0.109375 4.140625,-1 4.140625,-1.1875 4.140625,-1.28125 4.0625,-1.3125 4,-1.3125 c -0.078125,0 -0.109375,0.0625 -0.125,0.140625 -0.34375,1.03125 -1.25,1.03125 -1.34375,1.03125 -0.5,0 -0.890625,-0.296875 -1.125,-0.671875 -0.296875,-0.46875 -0.296875,-1.125 -0.296875,-1.484375 z m 0,0"
               transform="translate(161.44022,134.765)"
               id="path2995" />
            <path
               inkscape:connector-curvature="0"
               style="stroke:none;stroke-width:0"
               d="M 1.671875,-3.3125 V -4.40625 L 0.28125,-4.296875 v 0.3125 c 0.703125,0 0.78125,0.0625 0.78125,0.5625 V -0.75 c 0,0.4375 -0.109375,0.4375 -0.78125,0.4375 V 0 c 0.390625,-0.015625 0.859375,-0.03125 1.140625,-0.03125 0.390625,0 0.859375,0 1.265625,0.03125 V -0.3125 H 2.46875 c -0.734375,0 -0.75,-0.109375 -0.75,-0.46875 V -2.3125 c 0,-0.984375 0.421875,-1.875 1.171875,-1.875 0.0625,0 0.09375,0 0.109375,0.015625 -0.03125,0 -0.234375,0.125 -0.234375,0.390625 0,0.265625 0.21875,0.421875 0.4375,0.421875 0.171875,0 0.421875,-0.125 0.421875,-0.4375 0,-0.3125 -0.3125,-0.609375 -0.734375,-0.609375 -0.734375,0 -1.09375,0.671875 -1.21875,1.09375 z m 0,0"
               transform="translate(165.8676,134.765)"
               id="path2997" />
            <path
               inkscape:connector-curvature="0"
               style="stroke:none;stroke-width:0"
               d="m 3.3125,-0.75 c 0.046875,0.390625 0.3125,0.8125 0.78125,0.8125 0.21875,0 0.828125,-0.140625 0.828125,-0.953125 v -0.5625 h -0.25 v 0.5625 c 0,0.578125 -0.25,0.640625 -0.359375,0.640625 -0.328125,0 -0.375,-0.453125 -0.375,-0.5 v -1.984375 c 0,-0.421875 0,-0.8125 -0.359375,-1.1875 C 3.1875,-4.3125 2.6875,-4.46875 2.21875,-4.46875 c -0.828125,0 -1.515625,0.46875 -1.515625,1.125 0,0.296875 0.203125,0.46875 0.46875,0.46875 0.28125,0 0.453125,-0.203125 0.453125,-0.453125 0,-0.125 -0.046875,-0.453125 -0.515625,-0.453125 C 1.390625,-4.140625 1.875,-4.25 2.1875,-4.25 c 0.5,0 1.0625,0.390625 1.0625,1.28125 v 0.359375 c -0.515625,0.03125 -1.203125,0.0625 -1.828125,0.359375 -0.75,0.34375 -1,0.859375 -1,1.296875 0,0.8125 0.96875,1.0625 1.59375,1.0625 0.65625,0 1.109375,-0.40625 1.296875,-0.859375 z M 3.25,-2.390625 v 1 c 0,0.9375 -0.71875,1.28125 -1.171875,1.28125 -0.484375,0 -0.890625,-0.34375 -0.890625,-0.84375 0,-0.546875 0.421875,-1.375 2.0625,-1.4375 z m 0,0"
               transform="translate(169.76995,134.765)"
               id="path2999" />
            <path
               inkscape:connector-curvature="0"
               style="stroke:none;stroke-width:0"
               d="m 1.171875,-2.171875 c 0,-1.625 0.8125,-2.046875 1.34375,-2.046875 0.09375,0 0.71875,0.015625 1.0625,0.375 -0.40625,0.03125 -0.46875,0.328125 -0.46875,0.453125 0,0.265625 0.1875,0.453125 0.453125,0.453125 0.265625,0 0.46875,-0.15625 0.46875,-0.46875 0,-0.671875 -0.765625,-1.0625 -1.53125,-1.0625 -1.25,0 -2.15625,1.078125 -2.15625,2.3125 0,1.28125 0.984375,2.265625 2.140625,2.265625 1.328125,0 1.65625,-1.203125 1.65625,-1.296875 0,-0.09375 -0.109375,-0.09375 -0.140625,-0.09375 -0.078125,0 -0.109375,0.03125 -0.125,0.09375 -0.28125,0.921875 -0.9375,1.046875 -1.296875,1.046875 -0.53125,0 -1.40625,-0.421875 -1.40625,-2.03125 z m 0,0"
               transform="translate(174.75125,134.765)"
               id="path3001" />
            <path
               inkscape:connector-curvature="0"
               style="stroke:none;stroke-width:0"
               d="m 1.71875,-3.984375 h 1.4375 v -0.3125 H 1.71875 V -6.125 h -0.25 c 0,0.8125 -0.296875,1.875 -1.28125,1.921875 v 0.21875 h 0.84375 v 2.75 c 0,1.21875 0.9375,1.34375 1.296875,1.34375 0.703125,0 0.984375,-0.703125 0.984375,-1.34375 v -0.5625 h -0.25 V -1.25 c 0,0.734375 -0.296875,1.109375 -0.671875,1.109375 -0.671875,0 -0.671875,-0.90625 -0.671875,-1.078125 z m 0,0"
               transform="translate(179.17863,134.765)"
               id="path3003" />
            <path
               inkscape:connector-curvature="0"
               style="stroke:none;stroke-width:0"
               d="M 1.765625,-4.40625 0.375,-4.296875 v 0.3125 c 0.640625,0 0.734375,0.0625 0.734375,0.546875 V -0.75 c 0,0.4375 -0.109375,0.4375 -0.78125,0.4375 V 0 C 0.640625,-0.015625 1.1875,-0.03125 1.421875,-0.03125 1.78125,-0.03125 2.125,-0.015625 2.46875,0 v -0.3125 c -0.671875,0 -0.703125,-0.046875 -0.703125,-0.4375 z m 0.03125,-1.734375 c 0,-0.3125 -0.234375,-0.53125 -0.515625,-0.53125 -0.3125,0 -0.53125,0.265625 -0.53125,0.53125 0,0.265625 0.21875,0.53125 0.53125,0.53125 0.28125,0 0.515625,-0.21875 0.515625,-0.53125 z m 0,0"
               transform="translate(183.05308,134.765)"
               id="path3005" />
            <path
               inkscape:connector-curvature="0"
               style="stroke:none;stroke-width:0"
               d="M 4.6875,-2.140625 C 4.6875,-3.40625 3.703125,-4.46875 2.5,-4.46875 c -1.25,0 -2.21875,1.09375 -2.21875,2.328125 0,1.296875 1.03125,2.25 2.203125,2.25 1.203125,0 2.203125,-0.984375 2.203125,-2.25 z m -2.1875,2 c -0.4375,0 -0.875,-0.203125 -1.140625,-0.671875 -0.25,-0.4375 -0.25,-1.046875 -0.25,-1.40625 0,-0.390625 0,-0.921875 0.234375,-1.359375 C 1.609375,-4.03125 2.078125,-4.25 2.484375,-4.25 c 0.4375,0 0.859375,0.21875 1.125,0.65625 0.265625,0.421875 0.265625,1 0.265625,1.375 0,0.359375 0,0.90625 -0.21875,1.34375 C 3.421875,-0.421875 2.984375,-0.140625 2.5,-0.140625 Z m 0,0"
               transform="translate(185.82069,134.765)"
               id="path3007" />
            <path
               inkscape:connector-curvature="0"
               style="stroke:none;stroke-width:0"
               d="M 1.09375,-3.421875 V -0.75 c 0,0.4375 -0.109375,0.4375 -0.78125,0.4375 V 0 c 0.359375,-0.015625 0.859375,-0.03125 1.140625,-0.03125 0.25,0 0.765625,0.015625 1.109375,0.03125 v -0.3125 c -0.671875,0 -0.78125,0 -0.78125,-0.4375 V -2.59375 C 1.78125,-3.625 2.5,-4.1875 3.125,-4.1875 c 0.640625,0 0.75,0.53125 0.75,1.109375 V -0.75 c 0,0.4375 -0.109375,0.4375 -0.78125,0.4375 V 0 c 0.34375,-0.015625 0.859375,-0.03125 1.125,-0.03125 0.25,0 0.78125,0.015625 1.109375,0.03125 v -0.3125 c -0.515625,0 -0.765625,0 -0.765625,-0.296875 v -1.90625 c 0,-0.859375 0,-1.15625 -0.3125,-1.515625 -0.140625,-0.171875 -0.46875,-0.375 -1.046875,-0.375 C 2.46875,-4.40625 2,-3.984375 1.71875,-3.359375 V -4.40625 L 0.3125,-4.296875 v 0.3125 c 0.703125,0 0.78125,0.0625 0.78125,0.5625 z m 0,0"
               transform="translate(190.80199,134.765)"
               id="path3009" />
          </g>
        </g>
      </g>
      <g
         transform="matrix(0.52765075,0,0,0.52765075,20.512794,-6.7962061)"
         ns1:version="0.11.0"
         ns1:texconverter="pdflatex"
         ns1:pdfconverter="pdf2svg"
         ns1:text="effects"
         ns1:preamble="C:\\Users\\vr_co\\AppData\\Roaming\\inkscape\\extensions\\textext\\default_packages.tex"
         ns1:scale="1.88547609852"
         ns1:alignment="middle center"
         inkscapeversion="0.92.4"
         ns1:jacobian_sqrt="0.665155"
         id="g3240">
        <g
           id="g3238">
          <g
             style="fill:#000000;fill-opacity:1"
             id="g3236">
            <path
               inkscape:connector-curvature="0"
               style="stroke:none;stroke-width:0"
               d="M 1.109375,-2.515625 C 1.171875,-4 2.015625,-4.25 2.359375,-4.25 c 1.015625,0 1.125,1.34375 1.125,1.734375 z m 0,0.21875 h 2.78125 c 0.21875,0 0.25,0 0.25,-0.21875 0,-0.984375 -0.546875,-1.953125 -1.78125,-1.953125 -1.15625,0 -2.078125,1.03125 -2.078125,2.28125 0,1.328125 1.046875,2.296875 2.1875,2.296875 C 3.6875,0.109375 4.140625,-1 4.140625,-1.1875 4.140625,-1.28125 4.0625,-1.3125 4,-1.3125 c -0.078125,0 -0.109375,0.0625 -0.125,0.140625 -0.34375,1.03125 -1.25,1.03125 -1.34375,1.03125 -0.5,0 -0.890625,-0.296875 -1.125,-0.671875 -0.296875,-0.46875 -0.296875,-1.125 -0.296875,-1.484375 z m 0,0"
               transform="translate(148.712,134.765)"
               id="path3224" />
            <path
               inkscape:connector-curvature="0"
               style="stroke:none;stroke-width:0"
               d="m 4.46875,-3.984375 h 1.140625 v -0.3125 H 4.4375 v -1.15625 c 0,-0.890625 0.484375,-1.359375 0.921875,-1.359375 0.03125,0 0.1875,0 0.328125,0.078125 -0.109375,0.03125 -0.296875,0.171875 -0.296875,0.421875 0,0.21875 0.15625,0.421875 0.4375,0.421875 0.28125,0 0.4375,-0.203125 0.4375,-0.4375 0,-0.359375 -0.359375,-0.703125 -0.90625,-0.703125 -0.59375,0 -1.03125,0.375 -1.078125,0.421875 -0.296875,-0.375 -0.859375,-0.421875 -1.125,-0.421875 -0.9375,0 -2.09375,0.515625 -2.09375,1.59375 v 1.140625 H 0.265625 v 0.3125 H 1.0625 V -0.75 c 0,0.4375 -0.109375,0.4375 -0.78125,0.4375 V 0 C 0.609375,-0.015625 1.140625,-0.03125 1.390625,-0.03125 1.640625,-0.03125 2.125,-0.015625 2.5,0 v -0.3125 c -0.671875,0 -0.78125,0 -0.78125,-0.4375 V -3.984375 H 3.8125 V -0.75 c 0,0.4375 -0.109375,0.4375 -0.78125,0.4375 V 0 c 0.390625,-0.015625 0.859375,-0.03125 1.140625,-0.03125 0.390625,0 0.859375,0 1.265625,0.03125 V -0.3125 H 5.21875 c -0.734375,0 -0.75,-0.109375 -0.75,-0.46875 z m -2.78125,-0.3125 v -1.125 c 0,-0.96875 0.8125,-1.390625 1.46875,-1.390625 0.484375,0 0.765625,0.1875 0.765625,0.1875 v 0.015625 C 3.765625,-6.59375 3.5625,-6.453125 3.5625,-6.1875 c 0,0.0625 0,0.3125 0.28125,0.40625 C 3.8125,-5.65625 3.8125,-5.5625 3.8125,-5.4375 v 1.140625 z m 0,0"
               transform="translate(153.13938,134.765)"
               id="path3226" />
            <path
               inkscape:connector-curvature="0"
               style="stroke:none;stroke-width:0"
               d="M 1.109375,-2.515625 C 1.171875,-4 2.015625,-4.25 2.359375,-4.25 c 1.015625,0 1.125,1.34375 1.125,1.734375 z m 0,0.21875 h 2.78125 c 0.21875,0 0.25,0 0.25,-0.21875 0,-0.984375 -0.546875,-1.953125 -1.78125,-1.953125 -1.15625,0 -2.078125,1.03125 -2.078125,2.28125 0,1.328125 1.046875,2.296875 2.1875,2.296875 C 3.6875,0.109375 4.140625,-1 4.140625,-1.1875 4.140625,-1.28125 4.0625,-1.3125 4,-1.3125 c -0.078125,0 -0.109375,0.0625 -0.125,0.140625 -0.34375,1.03125 -1.25,1.03125 -1.34375,1.03125 -0.5,0 -0.890625,-0.296875 -1.125,-0.671875 -0.296875,-0.46875 -0.296875,-1.125 -0.296875,-1.484375 z m 0,0"
               transform="translate(158.95056,134.765)"
               id="path3228" />
            <path
               inkscape:connector-curvature="0"
               style="stroke:none;stroke-width:0"
               d="m 1.171875,-2.171875 c 0,-1.625 0.8125,-2.046875 1.34375,-2.046875 0.09375,0 0.71875,0.015625 1.0625,0.375 -0.40625,0.03125 -0.46875,0.328125 -0.46875,0.453125 0,0.265625 0.1875,0.453125 0.453125,0.453125 0.265625,0 0.46875,-0.15625 0.46875,-0.46875 0,-0.671875 -0.765625,-1.0625 -1.53125,-1.0625 -1.25,0 -2.15625,1.078125 -2.15625,2.3125 0,1.28125 0.984375,2.265625 2.140625,2.265625 1.328125,0 1.65625,-1.203125 1.65625,-1.296875 0,-0.09375 -0.109375,-0.09375 -0.140625,-0.09375 -0.078125,0 -0.109375,0.03125 -0.125,0.09375 -0.28125,0.921875 -0.9375,1.046875 -1.296875,1.046875 -0.53125,0 -1.40625,-0.421875 -1.40625,-2.03125 z m 0,0"
               transform="translate(163.37794,134.765)"
               id="path3230" />
            <path
               inkscape:connector-curvature="0"
               style="stroke:none;stroke-width:0"
               d="m 1.71875,-3.984375 h 1.4375 v -0.3125 H 1.71875 V -6.125 h -0.25 c 0,0.8125 -0.296875,1.875 -1.28125,1.921875 v 0.21875 h 0.84375 v 2.75 c 0,1.21875 0.9375,1.34375 1.296875,1.34375 0.703125,0 0.984375,-0.703125 0.984375,-1.34375 v -0.5625 h -0.25 V -1.25 c 0,0.734375 -0.296875,1.109375 -0.671875,1.109375 -0.671875,0 -0.671875,-0.90625 -0.671875,-1.078125 z m 0,0"
               transform="translate(167.80532,134.765)"
               id="path3232" />
            <path
               inkscape:connector-curvature="0"
               style="stroke:none;stroke-width:0"
               d="m 2.078125,-1.9375 c 0.21875,0.046875 1.03125,0.203125 1.03125,0.921875 0,0.5 -0.34375,0.90625 -1.125,0.90625 -0.84375,0 -1.203125,-0.5625 -1.390625,-1.421875 C 0.5625,-1.65625 0.5625,-1.6875 0.453125,-1.6875 c -0.125,0 -0.125,0.0625 -0.125,0.234375 V -0.125 c 0,0.171875 0,0.234375 0.109375,0.234375 0.046875,0 0.0625,-0.015625 0.25,-0.203125 0.015625,-0.015625 0.015625,-0.03125 0.203125,-0.21875 0.4375,0.40625 0.890625,0.421875 1.09375,0.421875 1.140625,0 1.609375,-0.671875 1.609375,-1.390625 0,-0.515625 -0.296875,-0.828125 -0.421875,-0.9375 C 2.84375,-2.546875 2.453125,-2.625 2.03125,-2.703125 1.46875,-2.8125 0.8125,-2.9375 0.8125,-3.515625 c 0,-0.359375 0.25,-0.765625 1.109375,-0.765625 1.09375,0 1.15625,0.90625 1.171875,1.203125 0,0.09375 0.09375,0.09375 0.109375,0.09375 0.140625,0 0.140625,-0.046875 0.140625,-0.234375 v -1.015625 c 0,-0.15625 0,-0.234375 -0.109375,-0.234375 -0.046875,0 -0.078125,0 -0.203125,0.125 -0.03125,0.03125 -0.125,0.125 -0.171875,0.15625 -0.375,-0.28125 -0.78125,-0.28125 -0.9375,-0.28125 -1.21875,0 -1.59375,0.671875 -1.59375,1.234375 0,0.34375 0.15625,0.625 0.421875,0.84375 0.328125,0.25 0.609375,0.3125 1.328125,0.453125 z m 0,0"
               transform="translate(171.67978,134.765)"
               id="path3234" />
          </g>
        </g>
      </g>
    </g>
  </g>
</svg>
